<svg xmlns="http://www.w3.org/2000/svg" xmlns:xlink="http://www.w3.org/1999/xlink" width="500" zoomAndPan="magnify" viewBox="0 0 375 116.999995" height="156" preserveAspectRatio="xMidYMid meet" version="1.0"><defs><g/></defs><path fill="#0059b3" d="M 27.808594 73.660156 C 24.3125 77.238281 18.871094 71.9375 22.367188 68.34375 C 25.859375 64.761719 31.300781 70.078125 27.808594 73.660156 Z M 107.1875 68.785156 C 105.679688 75.890625 102.644531 82.742188 98.085938 88.808594 C 101.136719 92.339844 96.628906 97.402344 92.769531 94.835938 C 88.828125 98.664062 84.414062 101.738281 79.726562 104.046875 C 81.3125 110.59375 72.042969 113.824219 69.136719 107.832031 C 65.523438 108.714844 61.796875 109.214844 58.007812 109.28125 C 56.050781 114.027344 49.023438 113.410156 47.878906 108.460938 C 42.820312 107.53125 37.699219 105.769531 33.230469 103.429688 C 28.863281 107.039062 22.492188 102.8125 24.226562 97.410156 C 18.65625 92.753906 14.183594 87.015625 11.023438 80.558594 C 5.296875 81.613281 2.339844 73.765625 7.421875 70.820312 C 6.03125 65.4375 5.503906 59.78125 5.960938 54.054688 C 0.0234375 52.226562 1.519531 43.027344 7.960938 43.398438 C 11.003906 33.199219 16.964844 24.636719 24.664062 18.375 C 21.316406 11.835938 29.804688 5.335938 35.207031 10.601562 C 35.46875 10.855469 35.695312 11.132812 35.910156 11.414062 C 44.0625 7.714844 53.214844 6.128906 62.511719 7.148438 C 64.242188 2.605469 71.074219 3.949219 70.976562 8.792969 C 73.433594 9.476562 75.851562 10.359375 78.199219 11.425781 C 80.527344 8.949219 84.539062 11.199219 83.785156 14.378906 C 85.117188 15.191406 86.429688 16.09375 87.710938 17.050781 C 90.753906 19.324219 93.582031 21.972656 96.039062 24.84375 C 98.703125 23.824219 101.226562 27.023438 99.503906 29.375 C 101.277344 31.988281 102.78125 34.726562 104.027344 37.566406 C 108.46875 36.910156 110.652344 43.027344 106.6875 45.277344 C 107.773438 49.503906 108.3125 53.851562 108.300781 58.195312 C 114.398438 59.59375 113.441406 68.695312 107.1875 68.785156 Z M 94.394531 28.84375 C 92.371094 29.097656 90.34375 29.453125 88.335938 29.871094 C 88.425781 30.800781 88.316406 31.75 88.015625 32.640625 C 92.566406 34.414062 96.988281 36.65625 101.199219 39.347656 L 102.265625 38.277344 C 101.578125 36.722656 100.816406 35.195312 99.984375 33.71875 C 99.359375 32.613281 98.683594 31.527344 97.96875 30.46875 C 96.597656 30.878906 95.003906 30.195312 94.394531 28.84375 Z M 52.800781 51.695312 C 58.773438 53.851562 64.546875 56.785156 69.96875 60.515625 C 70.191406 60.320312 70.4375 60.152344 70.683594 60.015625 C 68.617188 54.320312 65.839844 48.820312 62.335938 43.679688 C 61.257812 44.152344 59.984375 44.042969 58.988281 43.347656 C 56.636719 45.140625 54.378906 47.085938 52.214844 49.191406 C 52.683594 49.953125 52.878906 50.835938 52.800781 51.695312 Z M 75.292969 28.933594 C 75.398438 28.472656 75.566406 28.011719 75.78125 27.582031 C 70.035156 23.921875 63.898438 21.132812 57.566406 19.214844 C 56.1875 21.0625 54.90625 22.964844 53.722656 24.890625 C 54.632812 25.527344 55.335938 26.457031 55.667969 27.613281 C 62.238281 27.210938 68.832031 27.652344 75.292969 28.933594 Z M 75.105469 30.773438 C 68.765625 29.492188 62.296875 29.050781 55.855469 29.453125 C 55.785156 30.3125 55.503906 31.15625 55.015625 31.90625 C 56.714844 33.628906 58.320312 35.410156 59.828125 37.25 C 61.023438 36.839844 62.433594 37.09375 63.382812 38.054688 C 67.1875 35.65625 71.171875 33.621094 75.261719 31.957031 C 75.175781 31.574219 75.125 31.175781 75.105469 30.773438 Z M 45.8125 30.773438 C 33.902344 33.160156 22.484375 38.503906 12.714844 46.765625 C 12.949219 47.320312 13.085938 47.917969 13.117188 48.515625 C 23.726562 46.539062 34.636719 46.8125 45.1875 49.40625 C 45.363281 49.074219 45.589844 48.761719 45.863281 48.488281 C 47.222656 47.097656 49.347656 46.890625 50.921875 47.890625 C 53.125 45.746094 55.425781 43.761719 57.8125 41.941406 C 57.285156 40.765625 57.441406 39.347656 58.3125 38.320312 C 56.882812 36.578125 55.355469 34.882812 53.742188 33.25 C 51 35.234375 46.929688 33.953125 45.8125 30.773438 Z M 72.445312 59.457031 C 73.089844 59.390625 73.734375 59.46875 74.363281 59.671875 C 77.699219 52.449219 79.824219 44.808594 80.703125 37.054688 C 78.757812 36.753906 76.886719 35.460938 75.917969 33.679688 C 71.914062 35.304688 68.03125 37.289062 64.3125 39.648438 C 64.554688 40.617188 64.378906 41.664062 63.78125 42.515625 C 67.421875 47.851562 70.308594 53.546875 72.445312 59.457031 Z M 75.957031 60.613281 C 76.398438 61.015625 76.742188 61.484375 76.984375 61.984375 C 80.371094 60.515625 83.660156 58.792969 86.832031 56.804688 C 86.449219 50.09375 85.167969 43.4375 82.972656 37.015625 C 82.835938 37.046875 82.699219 37.066406 82.5625 37.085938 C 81.652344 45.160156 79.453125 53.117188 75.957031 60.613281 Z M 76.984375 65.964844 C 79.863281 68.480469 82.503906 71.171875 84.914062 74 C 85.207031 73.875 85.519531 73.804688 85.84375 73.785156 C 86.703125 68.863281 87.054688 63.882812 86.917969 58.917969 C 83.855469 60.777344 80.695312 62.402344 77.433594 63.792969 C 77.464844 64.535156 77.316406 65.28125 76.984375 65.964844 Z M 88.601562 55.671875 C 91.695312 53.605469 94.660156 51.296875 97.457031 48.722656 C 94.238281 43.957031 90.414062 39.472656 86.097656 35.507812 C 85.664062 35.882812 85.207031 36.195312 84.714844 36.4375 C 86.839844 42.683594 88.140625 49.140625 88.601562 55.671875 Z M 98.820312 47.441406 C 99.796875 46.5 100.757812 45.53125 101.6875 44.523438 C 100.835938 43.632812 100.347656 42.390625 100.53125 41.089844 C 96.441406 38.445312 92.15625 36.242188 87.730469 34.5 C 91.929688 38.425781 95.65625 42.800781 98.820312 47.441406 Z M 82.074219 16.554688 C 82.464844 19.019531 82.738281 21.496094 82.886719 23.972656 C 85.078125 24.351562 87.085938 25.976562 87.90625 28.082031 C 89.992188 27.640625 92.085938 27.277344 94.191406 27.015625 C 94.257812 26.671875 94.394531 26.328125 94.589844 26.027344 C 91.253906 22.09375 87.28125 18.695312 82.875 15.984375 C 82.632812 16.21875 82.367188 16.414062 82.074219 16.554688 Z M 70.171875 11.238281 C 73.746094 15.339844 76.800781 19.722656 79.34375 24.324219 C 79.890625 24.109375 80.460938 23.972656 81.046875 23.914062 C 80.898438 21.554688 80.636719 19.214844 80.261719 16.875 C 78.433594 16.679688 77.09375 14.878906 77.394531 13.078125 C 75.214844 12.089844 72.933594 11.257812 70.566406 10.582031 C 70.449219 10.808594 70.320312 11.03125 70.171875 11.238281 Z M 58.773438 17.660156 C 65.046875 19.625 71.121094 22.425781 76.828125 26.054688 L 77.75 25.214844 C 75.273438 20.730469 72.296875 16.464844 68.832031 12.480469 C 67.140625 13.46875 65.113281 13.117188 63.761719 11.960938 Z M 36.800781 13.070312 C 36.9375 13.441406 37.035156 13.820312 37.105469 14.214844 C 43.757812 14.300781 50.414062 15.261719 56.875 17.101562 L 62.617188 10.484375 C 62.402344 10.023438 62.277344 9.527344 62.238281 8.988281 C 53.574219 8.085938 44.824219 9.457031 36.800781 13.070312 Z M 36.566406 18.195312 C 40.292969 20.175781 43.894531 22.472656 47.320312 25.117188 C 48.691406 23.941406 50.472656 23.667969 52.046875 24.109375 C 53.175781 22.257812 54.378906 20.449219 55.679688 18.675781 C 49.621094 17.011719 43.398438 16.140625 37.164062 16.054688 C 37.09375 16.789062 36.890625 17.511719 36.566406 18.195312 Z M 9.820312 43.839844 L 11.71875 45.199219 C 21.710938 36.800781 33.375 31.378906 45.519531 28.953125 C 45.539062 28.121094 45.753906 27.289062 46.167969 26.546875 C 42.789062 23.941406 39.238281 21.671875 35.546875 19.742188 C 32.984375 22.648438 28.453125 22.738281 25.769531 19.929688 C 18.226562 26.132812 12.511719 34.875 9.820312 43.839844 Z M 45.511719 53.734375 C 44.953125 52.980469 44.6875 52.078125 44.707031 51.179688 C 34.246094 48.613281 23.402344 48.390625 12.890625 50.425781 C 12.195312 52.761719 10.035156 54.203125 7.792969 54.289062 C 7.371094 59.722656 7.863281 65.085938 9.164062 70.195312 C 14.828125 69.214844 17.746094 76.925781 12.753906 79.902344 C 15.730469 85.941406 19.910156 91.324219 25.085938 95.726562 C 25.867188 94.660156 27.035156 93.859375 28.472656 93.566406 C 30.097656 79.304688 35.773438 65.40625 45.511719 53.734375 Z M 34.929688 97.195312 C 49.152344 91.460938 61.875 80.820312 70.113281 67.550781 C 68.402344 66.210938 67.914062 63.84375 68.832031 61.972656 C 63.578125 58.371094 57.988281 55.535156 52.203125 53.449219 C 51.097656 55.238281 48.730469 55.855469 46.910156 54.925781 C 37.476562 66.238281 31.957031 79.6875 30.320312 93.496094 C 32.367188 93.75 34.238281 95.238281 34.929688 97.195312 Z M 73.199219 68.5 C 72.71875 68.53125 72.238281 68.492188 71.777344 68.363281 C 63.265625 82.152344 50.050781 93.164062 35.265625 99.046875 C 35.273438 100.152344 34.980469 101.148438 34.460938 101.992188 C 38.542969 104.085938 43.183594 105.679688 47.773438 106.5625 C 48.625 99.917969 58.625 100.726562 58.390625 107.433594 C 61.863281 107.335938 65.289062 106.875 68.617188 106.070312 C 68.292969 103.125 70.371094 100.101562 73.667969 99.769531 C 75.730469 89.433594 75.566406 78.765625 73.199219 68.5 Z M 75.859375 99.984375 C 79.871094 93.523438 82.789062 86.585938 84.628906 79.433594 C 83.121094 78.621094 82.613281 76.625 83.503906 75.195312 C 81.171875 72.453125 78.628906 69.859375 75.851562 67.433594 C 75.574219 67.667969 75.28125 67.863281 74.96875 68.03125 C 77.394531 78.492188 77.589844 89.375 75.527344 99.90625 C 75.632812 99.917969 75.75 99.945312 75.859375 99.984375 Z M 92.429688 88.339844 C 90.832031 85.34375 89.023438 82.425781 86.996094 79.636719 C 86.8125 79.695312 86.625 79.746094 86.4375 79.765625 C 84.578125 87.085938 81.605469 94.191406 77.523438 100.808594 L 78.953125 102.3125 C 83.550781 100.035156 87.78125 97.046875 91.480469 93.457031 C 90.539062 91.792969 90.890625 89.601562 92.429688 88.339844 Z M 105.296875 68.472656 C 101.636719 67.160156 100.53125 62.1875 103.488281 59.476562 C 102.070312 56.34375 100.394531 53.261719 98.488281 50.289062 C 95.402344 53.085938 92.136719 55.59375 88.71875 57.804688 C 88.953125 63.285156 88.59375 68.792969 87.632812 74.234375 C 89.109375 75.144531 89.503906 77.179688 88.484375 78.5625 C 90.570312 81.4375 92.4375 84.433594 94.074219 87.527344 C 94.886719 87.332031 95.746094 87.398438 96.527344 87.710938 C 100.648438 82.222656 103.78125 75.46875 105.296875 68.472656 Z M 106.414062 58.105469 C 106.414062 53.910156 105.886719 49.789062 104.867188 45.816406 C 104.300781 45.84375 103.742188 45.757812 103.242188 45.5625 C 102.148438 46.753906 101.011719 47.898438 99.855469 49.003906 C 101.832031 52.070312 103.574219 55.238281 105.054688 58.480469 C 105.492188 58.292969 105.953125 58.164062 106.414062 58.105469 Z M 97.136719 72.042969 C 94.601562 71.339844 93.535156 75.203125 96.070312 75.910156 C 98.59375 76.613281 99.671875 72.75 97.136719 72.042969 Z M 58.9375 69.714844 C 62.207031 70.234375 63 65.25 59.730469 64.734375 C 56.460938 64.214844 55.667969 69.195312 58.9375 69.714844 Z M 59.386719 90.714844 C 55.25 89.570312 53.496094 95.882812 57.644531 97.027344 C 61.785156 98.175781 63.527344 91.863281 59.386719 90.714844 Z M 39.953125 37.015625 C 36.46875 36.046875 34.988281 41.371094 38.484375 42.339844 C 41.96875 43.300781 43.4375 37.976562 39.953125 37.015625 Z M 39.953125 37.015625 " fill-opacity="1" fill-rule="nonzero"/><g fill="#0059b3" fill-opacity="1"><g transform="translate(132.943062, 37.359321)"><g><path d="M 10.8125 -10.234375 L 21.25 -10.234375 C 21.226562 -8.679688 20.972656 -7.257812 20.484375 -5.96875 C 20.003906 -4.675781 19.320312 -3.550781 18.4375 -2.59375 C 17.550781 -1.644531 16.5 -0.90625 15.28125 -0.375 C 14.0625 0.15625 12.710938 0.421875 11.234375 0.421875 C 9.796875 0.421875 8.460938 0.171875 7.234375 -0.328125 C 6.003906 -0.835938 4.925781 -1.546875 4 -2.453125 C 3.082031 -3.367188 2.375 -4.453125 1.875 -5.703125 C 1.375 -6.953125 1.125 -8.300781 1.125 -9.75 C 1.125 -11.226562 1.367188 -12.585938 1.859375 -13.828125 C 2.347656 -15.066406 3.046875 -16.144531 3.953125 -17.0625 C 4.859375 -17.988281 5.925781 -18.707031 7.15625 -19.21875 C 8.382812 -19.726562 9.71875 -19.984375 11.15625 -19.984375 C 12.769531 -19.984375 14.265625 -19.664062 15.640625 -19.03125 C 17.023438 -18.394531 18.179688 -17.519531 19.109375 -16.40625 C 20.046875 -15.289062 20.664062 -13.992188 20.96875 -12.515625 L 16.609375 -12.515625 C 16.191406 -13.578125 15.5 -14.414062 14.53125 -15.03125 C 13.5625 -15.65625 12.460938 -15.96875 11.234375 -15.96875 C 10.078125 -15.96875 9.0625 -15.703125 8.1875 -15.171875 C 7.3125 -14.640625 6.625 -13.910156 6.125 -12.984375 C 5.632812 -12.054688 5.390625 -10.976562 5.390625 -9.75 C 5.390625 -8.539062 5.628906 -7.472656 6.109375 -6.546875 C 6.597656 -5.628906 7.28125 -4.910156 8.15625 -4.390625 C 9.03125 -3.867188 10.054688 -3.609375 11.234375 -3.609375 C 12.503906 -3.609375 13.640625 -3.914062 14.640625 -4.53125 C 15.648438 -5.144531 16.332031 -5.953125 16.6875 -6.953125 L 10.8125 -6.953125 Z M 10.8125 -10.234375 "/></g></g></g><g fill="#0059b3" fill-opacity="1"><g transform="translate(155.223645, 37.359321)"><g><path d="M 6.484375 -3.9375 L 13.984375 -3.9375 L 13.984375 0 L 2.234375 0 L 2.234375 -19.5625 L 6.484375 -19.5625 Z M 6.484375 -3.9375 "/></g></g></g><g fill="#0059b3" fill-opacity="1"><g transform="translate(169.816449, 37.359321)"><g><path d="M 11.515625 0.421875 C 10.023438 0.421875 8.644531 0.164062 7.375 -0.34375 C 6.113281 -0.863281 5.007812 -1.582031 4.0625 -2.5 C 3.125 -3.425781 2.394531 -4.507812 1.875 -5.75 C 1.351562 -6.988281 1.09375 -8.332031 1.09375 -9.78125 C 1.09375 -11.238281 1.351562 -12.585938 1.875 -13.828125 C 2.394531 -15.066406 3.125 -16.144531 4.0625 -17.0625 C 5.007812 -17.988281 6.113281 -18.707031 7.375 -19.21875 C 8.644531 -19.726562 10.023438 -19.984375 11.515625 -19.984375 C 13.003906 -19.984375 14.378906 -19.726562 15.640625 -19.21875 C 16.910156 -18.707031 18.007812 -17.988281 18.9375 -17.0625 C 19.875 -16.144531 20.601562 -15.066406 21.125 -13.828125 C 21.65625 -12.585938 21.921875 -11.238281 21.921875 -9.78125 C 21.921875 -8.332031 21.65625 -6.988281 21.125 -5.75 C 20.601562 -4.507812 19.875 -3.425781 18.9375 -2.5 C 18.007812 -1.582031 16.910156 -0.863281 15.640625 -0.34375 C 14.378906 0.164062 13.003906 0.421875 11.515625 0.421875 Z M 11.515625 -3.578125 C 12.691406 -3.578125 13.738281 -3.847656 14.65625 -4.390625 C 15.582031 -4.929688 16.3125 -5.664062 16.84375 -6.59375 C 17.375 -7.53125 17.640625 -8.59375 17.640625 -9.78125 C 17.640625 -10.957031 17.375 -12.015625 16.84375 -12.953125 C 16.3125 -13.898438 15.582031 -14.640625 14.65625 -15.171875 C 13.738281 -15.710938 12.691406 -15.984375 11.515625 -15.984375 C 10.359375 -15.984375 9.3125 -15.710938 8.375 -15.171875 C 7.445312 -14.640625 6.710938 -13.898438 6.171875 -12.953125 C 5.628906 -12.015625 5.359375 -10.957031 5.359375 -9.78125 C 5.359375 -8.601562 5.628906 -7.546875 6.171875 -6.609375 C 6.710938 -5.671875 7.445312 -4.929688 8.375 -4.390625 C 9.3125 -3.847656 10.359375 -3.578125 11.515625 -3.578125 Z M 11.515625 -3.578125 "/></g></g></g><g fill="#0059b3" fill-opacity="1"><g transform="translate(192.823881, 37.359321)"><g><path d="M 14 -10.3125 C 14.863281 -9.863281 15.53125 -9.234375 16 -8.421875 C 16.476562 -7.617188 16.71875 -6.691406 16.71875 -5.640625 C 16.71875 -4.597656 16.441406 -3.648438 15.890625 -2.796875 C 15.335938 -1.941406 14.59375 -1.257812 13.65625 -0.75 C 12.71875 -0.25 11.6875 0 10.5625 0 L 2.234375 0 L 2.234375 -19.5625 L 10.34375 -19.5625 C 11.457031 -19.5625 12.457031 -19.34375 13.34375 -18.90625 C 14.226562 -18.46875 14.925781 -17.867188 15.4375 -17.109375 C 15.957031 -16.347656 16.21875 -15.488281 16.21875 -14.53125 C 16.21875 -13.695312 16.019531 -12.90625 15.625 -12.15625 C 15.226562 -11.414062 14.6875 -10.800781 14 -10.3125 Z M 12.109375 -13.859375 C 12.109375 -14.472656 11.910156 -14.976562 11.515625 -15.375 C 11.117188 -15.769531 10.585938 -15.96875 9.921875 -15.96875 L 6.40625 -15.96875 L 6.40625 -11.796875 L 9.921875 -11.796875 C 10.585938 -11.796875 11.117188 -11.988281 11.515625 -12.375 C 11.910156 -12.769531 12.109375 -13.265625 12.109375 -13.859375 Z M 10.140625 -3.890625 C 10.847656 -3.890625 11.410156 -4.09375 11.828125 -4.5 C 12.253906 -4.90625 12.46875 -5.4375 12.46875 -6.09375 C 12.46875 -6.726562 12.253906 -7.25 11.828125 -7.65625 C 11.410156 -8.070312 10.847656 -8.28125 10.140625 -8.28125 L 6.40625 -8.28125 L 6.40625 -3.890625 Z M 10.140625 -3.890625 "/></g></g></g><g fill="#0059b3" fill-opacity="1"><g transform="translate(210.771355, 37.359321)"><g><path d="M 15.234375 0 L 13.859375 -3.71875 L 6.0625 -3.71875 L 4.71875 0 L 0.25 0 L 7.90625 -19.5625 L 11.90625 -19.5625 L 19.8125 0 Z M 9.953125 -14.390625 L 7.40625 -7.40625 L 12.515625 -7.40625 Z M 9.953125 -14.390625 "/></g></g></g><g fill="#0059b3" fill-opacity="1"><g transform="translate(230.843453, 37.359321)"><g><path d="M 6.484375 -3.9375 L 13.984375 -3.9375 L 13.984375 0 L 2.234375 0 L 2.234375 -19.5625 L 6.484375 -19.5625 Z M 6.484375 -3.9375 "/></g></g></g><g fill="#0059b3" fill-opacity="1"><g transform="translate(132.943062, 65.667142)"><g><path d="M 13.84375 -19.5625 L 18.0625 -19.5625 L 18.0625 0 L 13.84375 0 L 13.84375 -8.078125 L 6.484375 -8.078125 L 6.484375 0 L 2.234375 0 L 2.234375 -19.5625 L 6.484375 -19.5625 L 6.484375 -12.015625 L 13.84375 -12.015625 Z M 13.84375 -19.5625 "/></g></g></g><g fill="#0059b3" fill-opacity="1"><g transform="translate(153.266759, 65.667142)"><g><path d="M 6.484375 -3.9375 L 14.28125 -3.9375 L 14.28125 0 L 2.234375 0 L 2.234375 -19.5625 L 13.984375 -19.5625 L 13.984375 -15.65625 L 6.484375 -15.65625 L 6.484375 -11.796875 L 13.25 -11.796875 L 13.25 -7.96875 L 6.484375 -7.96875 Z M 6.484375 -3.9375 "/></g></g></g><g fill="#0059b3" fill-opacity="1"><g transform="translate(168.893923, 65.667142)"><g><path d="M 15.234375 0 L 13.859375 -3.71875 L 6.0625 -3.71875 L 4.71875 0 L 0.25 0 L 7.90625 -19.5625 L 11.90625 -19.5625 L 19.8125 0 Z M 9.953125 -14.390625 L 7.40625 -7.40625 L 12.515625 -7.40625 Z M 9.953125 -14.390625 "/></g></g></g><g fill="#0059b3" fill-opacity="1"><g transform="translate(188.966022, 65.667142)"><g><path d="M 6.484375 -3.9375 L 13.984375 -3.9375 L 13.984375 0 L 2.234375 0 L 2.234375 -19.5625 L 6.484375 -19.5625 Z M 6.484375 -3.9375 "/></g></g></g><g fill="#0059b3" fill-opacity="1"><g transform="translate(203.558826, 65.667142)"><g><path d="M 15.734375 -19.5625 L 15.734375 -15.625 L 10.28125 -15.625 L 10.28125 0 L 6.03125 0 L 6.03125 -15.625 L 0.609375 -15.625 L 0.609375 -19.5625 Z M 15.734375 -19.5625 "/></g></g></g><g fill="#0059b3" fill-opacity="1"><g transform="translate(219.884874, 65.667142)"><g><path d="M 13.84375 -19.5625 L 18.0625 -19.5625 L 18.0625 0 L 13.84375 0 L 13.84375 -8.078125 L 6.484375 -8.078125 L 6.484375 0 L 2.234375 0 L 2.234375 -19.5625 L 6.484375 -19.5625 L 6.484375 -12.015625 L 13.84375 -12.015625 Z M 13.84375 -19.5625 "/></g></g></g><g fill="#0059b3" fill-opacity="1"><g transform="translate(132.943062, 93.974963)"><g><path d="M 11.515625 0.421875 C 10.023438 0.421875 8.644531 0.164062 7.375 -0.34375 C 6.113281 -0.863281 5.007812 -1.582031 4.0625 -2.5 C 3.125 -3.425781 2.394531 -4.507812 1.875 -5.75 C 1.351562 -6.988281 1.09375 -8.332031 1.09375 -9.78125 C 1.09375 -11.238281 1.351562 -12.585938 1.875 -13.828125 C 2.394531 -15.066406 3.125 -16.144531 4.0625 -17.0625 C 5.007812 -17.988281 6.113281 -18.707031 7.375 -19.21875 C 8.644531 -19.726562 10.023438 -19.984375 11.515625 -19.984375 C 13.003906 -19.984375 14.378906 -19.726562 15.640625 -19.21875 C 16.910156 -18.707031 18.007812 -17.988281 18.9375 -17.0625 C 19.875 -16.144531 20.601562 -15.066406 21.125 -13.828125 C 21.65625 -12.585938 21.921875 -11.238281 21.921875 -9.78125 C 21.921875 -8.332031 21.65625 -6.988281 21.125 -5.75 C 20.601562 -4.507812 19.875 -3.425781 18.9375 -2.5 C 18.007812 -1.582031 16.910156 -0.863281 15.640625 -0.34375 C 14.378906 0.164062 13.003906 0.421875 11.515625 0.421875 Z M 11.515625 -3.578125 C 12.691406 -3.578125 13.738281 -3.847656 14.65625 -4.390625 C 15.582031 -4.929688 16.3125 -5.664062 16.84375 -6.59375 C 17.375 -7.53125 17.640625 -8.59375 17.640625 -9.78125 C 17.640625 -10.957031 17.375 -12.015625 16.84375 -12.953125 C 16.3125 -13.898438 15.582031 -14.640625 14.65625 -15.171875 C 13.738281 -15.710938 12.691406 -15.984375 11.515625 -15.984375 C 10.359375 -15.984375 9.3125 -15.710938 8.375 -15.171875 C 7.445312 -14.640625 6.710938 -13.898438 6.171875 -12.953125 C 5.628906 -12.015625 5.359375 -10.957031 5.359375 -9.78125 C 5.359375 -8.601562 5.628906 -7.546875 6.171875 -6.609375 C 6.710938 -5.671875 7.445312 -4.929688 8.375 -4.390625 C 9.3125 -3.847656 10.359375 -3.578125 11.515625 -3.578125 Z M 11.515625 -3.578125 "/></g></g></g><g fill="#0059b3" fill-opacity="1"><g transform="translate(155.950494, 93.974963)"><g><path d="M 13 0 L 9.203125 -6.6875 L 6.484375 -6.6875 L 6.484375 0 L 2.234375 0 L 2.234375 -19.5625 L 10.140625 -19.5625 C 11.453125 -19.5625 12.617188 -19.28125 13.640625 -18.71875 C 14.660156 -18.164062 15.46875 -17.40625 16.0625 -16.4375 C 16.664062 -15.46875 16.96875 -14.347656 16.96875 -13.078125 C 16.96875 -11.816406 16.644531 -10.6875 16 -9.6875 C 15.351562 -8.6875 14.492188 -7.925781 13.421875 -7.40625 L 17.75 0 Z M 6.484375 -15.65625 L 6.484375 -10.59375 L 9.875 -10.59375 C 10.75 -10.59375 11.4375 -10.828125 11.9375 -11.296875 C 12.4375 -11.773438 12.6875 -12.378906 12.6875 -13.109375 C 12.6875 -13.859375 12.4375 -14.46875 11.9375 -14.9375 C 11.4375 -15.414062 10.75 -15.65625 9.875 -15.65625 Z M 6.484375 -15.65625 "/></g></g></g><g fill="#0059b3" fill-opacity="1"><g transform="translate(174.429122, 93.974963)"><g><path d="M 10.8125 -10.234375 L 21.25 -10.234375 C 21.226562 -8.679688 20.972656 -7.257812 20.484375 -5.96875 C 20.003906 -4.675781 19.320312 -3.550781 18.4375 -2.59375 C 17.550781 -1.644531 16.5 -0.90625 15.28125 -0.375 C 14.0625 0.15625 12.710938 0.421875 11.234375 0.421875 C 9.796875 0.421875 8.460938 0.171875 7.234375 -0.328125 C 6.003906 -0.835938 4.925781 -1.546875 4 -2.453125 C 3.082031 -3.367188 2.375 -4.453125 1.875 -5.703125 C 1.375 -6.953125 1.125 -8.300781 1.125 -9.75 C 1.125 -11.226562 1.367188 -12.585938 1.859375 -13.828125 C 2.347656 -15.066406 3.046875 -16.144531 3.953125 -17.0625 C 4.859375 -17.988281 5.925781 -18.707031 7.15625 -19.21875 C 8.382812 -19.726562 9.71875 -19.984375 11.15625 -19.984375 C 12.769531 -19.984375 14.265625 -19.664062 15.640625 -19.03125 C 17.023438 -18.394531 18.179688 -17.519531 19.109375 -16.40625 C 20.046875 -15.289062 20.664062 -13.992188 20.96875 -12.515625 L 16.609375 -12.515625 C 16.191406 -13.578125 15.5 -14.414062 14.53125 -15.03125 C 13.5625 -15.65625 12.460938 -15.96875 11.234375 -15.96875 C 10.078125 -15.96875 9.0625 -15.703125 8.1875 -15.171875 C 7.3125 -14.640625 6.625 -13.910156 6.125 -12.984375 C 5.632812 -12.054688 5.390625 -10.976562 5.390625 -9.75 C 5.390625 -8.539062 5.628906 -7.472656 6.109375 -6.546875 C 6.597656 -5.628906 7.28125 -4.910156 8.15625 -4.390625 C 9.03125 -3.867188 10.054688 -3.609375 11.234375 -3.609375 C 12.503906 -3.609375 13.640625 -3.914062 14.640625 -4.53125 C 15.648438 -5.144531 16.332031 -5.953125 16.6875 -6.953125 L 10.8125 -6.953125 Z M 10.8125 -10.234375 "/></g></g></g><g fill="#0059b3" fill-opacity="1"><g transform="translate(196.709705, 93.974963)"><g><path d="M 15.234375 0 L 13.859375 -3.71875 L 6.0625 -3.71875 L 4.71875 0 L 0.25 0 L 7.90625 -19.5625 L 11.90625 -19.5625 L 19.8125 0 Z M 9.953125 -14.390625 L 7.40625 -7.40625 L 12.515625 -7.40625 Z M 9.953125 -14.390625 "/></g></g></g><g fill="#0059b3" fill-opacity="1"><g transform="translate(216.781803, 93.974963)"><g><path d="M 14.640625 -19.5625 L 18.78125 -19.5625 L 18.78125 0 L 15.265625 0 L 6.40625 -12.21875 L 6.40625 0 L 2.234375 0 L 2.234375 -19.5625 L 6.0625 -19.5625 L 14.640625 -7.625 Z M 14.640625 -19.5625 "/></g></g></g><g fill="#0059b3" fill-opacity="1"><g transform="translate(237.804392, 93.974963)"><g><path d="M 2.234375 0 L 2.234375 -19.5625 L 6.484375 -19.5625 L 6.484375 0 Z M 2.234375 0 "/></g></g></g><g fill="#0059b3" fill-opacity="1"><g transform="translate(246.52653, 93.974963)"><g><path d="M 8.71875 0.390625 C 7.226562 0.390625 5.914062 0.117188 4.78125 -0.421875 C 3.644531 -0.960938 2.753906 -1.734375 2.109375 -2.734375 C 1.460938 -3.742188 1.140625 -4.945312 1.140625 -6.34375 L 5.421875 -6.34375 C 5.421875 -5.394531 5.75 -4.691406 6.40625 -4.234375 C 7.070312 -3.773438 7.832031 -3.546875 8.6875 -3.546875 C 9.226562 -3.546875 9.734375 -3.632812 10.203125 -3.8125 C 10.679688 -3.988281 11.078125 -4.25 11.390625 -4.59375 C 11.703125 -4.9375 11.859375 -5.351562 11.859375 -5.84375 C 11.859375 -6.34375 11.679688 -6.738281 11.328125 -7.03125 C 10.972656 -7.320312 10.492188 -7.554688 9.890625 -7.734375 C 9.296875 -7.921875 8.644531 -8.101562 7.9375 -8.28125 C 7.207031 -8.445312 6.460938 -8.648438 5.703125 -8.890625 C 4.941406 -9.128906 4.234375 -9.445312 3.578125 -9.84375 C 2.921875 -10.25 2.394531 -10.789062 2 -11.46875 C 1.613281 -12.15625 1.421875 -13.019531 1.421875 -14.0625 C 1.421875 -15.945312 2.054688 -17.394531 3.328125 -18.40625 C 4.609375 -19.425781 6.34375 -19.9375 8.53125 -19.9375 C 10.757812 -19.9375 12.488281 -19.367188 13.71875 -18.234375 C 14.945312 -17.109375 15.5625 -15.578125 15.5625 -13.640625 L 11.375 -13.640625 C 11.375 -14.484375 11.078125 -15.101562 10.484375 -15.5 C 9.890625 -15.894531 9.195312 -16.09375 8.40625 -16.09375 C 7.71875 -16.09375 7.082031 -15.941406 6.5 -15.640625 C 5.925781 -15.347656 5.640625 -14.882812 5.640625 -14.25 C 5.640625 -13.789062 5.8125 -13.425781 6.15625 -13.15625 C 6.507812 -12.882812 6.96875 -12.660156 7.53125 -12.484375 C 8.101562 -12.304688 8.734375 -12.132812 9.421875 -11.96875 C 10.160156 -11.78125 10.921875 -11.554688 11.703125 -11.296875 C 12.492188 -11.046875 13.222656 -10.707031 13.890625 -10.28125 C 14.566406 -9.851562 15.113281 -9.285156 15.53125 -8.578125 C 15.945312 -7.867188 16.15625 -6.972656 16.15625 -5.890625 C 16.15625 -4.484375 15.8125 -3.3125 15.125 -2.375 C 14.445312 -1.445312 13.550781 -0.753906 12.4375 -0.296875 C 11.320312 0.160156 10.082031 0.390625 8.71875 0.390625 Z M 8.71875 0.390625 "/></g></g></g><g fill="#0059b3" fill-opacity="1"><g transform="translate(263.831026, 93.974963)"><g><path d="M 15.234375 0 L 13.859375 -3.71875 L 6.0625 -3.71875 L 4.71875 0 L 0.25 0 L 7.90625 -19.5625 L 11.90625 -19.5625 L 19.8125 0 Z M 9.953125 -14.390625 L 7.40625 -7.40625 L 12.515625 -7.40625 Z M 9.953125 -14.390625 "/></g></g></g><g fill="#0059b3" fill-opacity="1"><g transform="translate(283.903132, 93.974963)"><g><path d="M 15.734375 -19.5625 L 15.734375 -15.625 L 10.28125 -15.625 L 10.28125 0 L 6.03125 0 L 6.03125 -15.625 L 0.609375 -15.625 L 0.609375 -19.5625 Z M 15.734375 -19.5625 "/></g></g></g><g fill="#0059b3" fill-opacity="1"><g transform="translate(300.229172, 93.974963)"><g><path d="M 2.234375 0 L 2.234375 -19.5625 L 6.484375 -19.5625 L 6.484375 0 Z M 2.234375 0 "/></g></g></g><g fill="#0059b3" fill-opacity="1"><g transform="translate(308.951318, 93.974963)"><g><path d="M 11.515625 0.421875 C 10.023438 0.421875 8.644531 0.164062 7.375 -0.34375 C 6.113281 -0.863281 5.007812 -1.582031 4.0625 -2.5 C 3.125 -3.425781 2.394531 -4.507812 1.875 -5.75 C 1.351562 -6.988281 1.09375 -8.332031 1.09375 -9.78125 C 1.09375 -11.238281 1.351562 -12.585938 1.875 -13.828125 C 2.394531 -15.066406 3.125 -16.144531 4.0625 -17.0625 C 5.007812 -17.988281 6.113281 -18.707031 7.375 -19.21875 C 8.644531 -19.726562 10.023438 -19.984375 11.515625 -19.984375 C 13.003906 -19.984375 14.378906 -19.726562 15.640625 -19.21875 C 16.910156 -18.707031 18.007812 -17.988281 18.9375 -17.0625 C 19.875 -16.144531 20.601562 -15.066406 21.125 -13.828125 C 21.65625 -12.585938 21.921875 -11.238281 21.921875 -9.78125 C 21.921875 -8.332031 21.65625 -6.988281 21.125 -5.75 C 20.601562 -4.507812 19.875 -3.425781 18.9375 -2.5 C 18.007812 -1.582031 16.910156 -0.863281 15.640625 -0.34375 C 14.378906 0.164062 13.003906 0.421875 11.515625 0.421875 Z M 11.515625 -3.578125 C 12.691406 -3.578125 13.738281 -3.847656 14.65625 -4.390625 C 15.582031 -4.929688 16.3125 -5.664062 16.84375 -6.59375 C 17.375 -7.53125 17.640625 -8.59375 17.640625 -9.78125 C 17.640625 -10.957031 17.375 -12.015625 16.84375 -12.953125 C 16.3125 -13.898438 15.582031 -14.640625 14.65625 -15.171875 C 13.738281 -15.710938 12.691406 -15.984375 11.515625 -15.984375 C 10.359375 -15.984375 9.3125 -15.710938 8.375 -15.171875 C 7.445312 -14.640625 6.710938 -13.898438 6.171875 -12.953125 C 5.628906 -12.015625 5.359375 -10.957031 5.359375 -9.78125 C 5.359375 -8.601562 5.628906 -7.546875 6.171875 -6.609375 C 6.710938 -5.671875 7.445312 -4.929688 8.375 -4.390625 C 9.3125 -3.847656 10.359375 -3.578125 11.515625 -3.578125 Z M 11.515625 -3.578125 "/></g></g></g><g fill="#0059b3" fill-opacity="1"><g transform="translate(331.95875, 93.974963)"><g><path d="M 14.640625 -19.5625 L 18.78125 -19.5625 L 18.78125 0 L 15.265625 0 L 6.40625 -12.21875 L 6.40625 0 L 2.234375 0 L 2.234375 -19.5625 L 6.0625 -19.5625 L 14.640625 -7.625 Z M 14.640625 -19.5625 "/></g></g></g><path stroke-linecap="butt" transform="matrix(0.000000001309, -0.75, 0.75, 0.000000001309, 123.56827, 103.151445)" fill="none" stroke-linejoin="miter" d="M -0.00119767 1.497516 L 119.550896 1.497515 " stroke="#0059b3" stroke-width="3" stroke-opacity="1" stroke-miterlimit="4"/></svg>