<svg xmlns="http://www.w3.org/2000/svg" xmlns:xlink="http://www.w3.org/1999/xlink" width="382" zoomAndPan="magnify" viewBox="0 0 286.5 106.499997" height="142" preserveAspectRatio="xMidYMid meet" version="1.0"><defs><g/><clipPath id="8e788c681e"><path d="M 0.421875 0 L 85.519531 0 L 85.519531 105.253906 L 0.421875 105.253906 Z M 0.421875 0 " clip-rule="nonzero"/></clipPath></defs><g clip-path="url(#8e788c681e)"><path fill="#0059b3" d="M 37.957031 5.105469 C 37.957031 2.304688 40.226562 0.03125 43.027344 0.03125 C 45.832031 0.03125 48.101562 2.304688 48.101562 5.105469 C 48.101562 7.90625 45.832031 10.175781 43.027344 10.175781 C 40.226562 10.175781 37.957031 7.90625 37.957031 5.105469 Z M 53.207031 8.328125 C 64.769531 11.75 73.921875 20.898438 77.34375 32.464844 C 77.617188 33.394531 78.589844 33.925781 79.519531 33.652344 C 80.449219 33.378906 80.980469 32.40625 80.707031 31.476562 C 76.9375 18.742188 66.929688 8.734375 54.195312 4.964844 C 53.265625 4.691406 52.292969 5.222656 52.019531 6.152344 C 51.746094 7.078125 52.277344 8.054688 53.207031 8.328125 Z M 55.976562 24.757812 C 58.054688 24.070312 59.988281 23.207031 61.703125 22.160156 C 57.769531 18.574219 52.796875 16.101562 47.292969 15.25 C 50.75 17.839844 53.707031 21.066406 55.976562 24.757812 Z M 80.566406 37.570312 C 77.765625 37.570312 75.496094 39.839844 75.496094 42.640625 C 75.496094 45.441406 77.765625 47.714844 80.566406 47.714844 C 83.367188 47.714844 85.640625 45.441406 85.640625 42.640625 C 85.640625 39.839844 83.367188 37.570312 80.566406 37.570312 Z M 21.882812 24.726562 C 18.140625 29.140625 15.753906 34.742188 15.367188 40.886719 L 25.070312 40.886719 C 25.300781 36.25 26.464844 31.855469 28.375 27.878906 C 26.105469 27.089844 23.996094 26.097656 22.117188 24.90625 C 22.03125 24.851562 21.953125 24.792969 21.882812 24.726562 Z M 63.464844 85.769531 L 51.449219 78.921875 C 49.722656 77.9375 47.191406 78.960938 44.554688 80.027344 C 39.535156 82.0625 34.242188 84.203125 29.246094 77.777344 C 28.417969 76.710938 28.609375 75.179688 29.679688 74.359375 C 30.929688 73.347656 33.007812 72.296875 34.476562 71.195312 C 36.230469 69.875 37.546875 68.550781 39.117188 67.085938 C 37.128906 66.605469 35.308594 67.03125 33.605469 67.429688 C 31.023438 68.035156 28.644531 68.589844 25.972656 67.117188 L 23.898438 66.15625 L 17.632812 80.328125 C 19.773438 81.269531 21.335938 81.589844 22.078125 84.144531 C 25.265625 82.183594 29.429688 83.824219 30.410156 87.429688 C 32.722656 87.308594 34.878906 88.628906 35.8125 90.753906 L 35.863281 90.78125 C 38.386719 90.335938 40.90625 91.683594 41.941406 94.03125 L 41.992188 94.054688 C 43.933594 93.714844 45.914062 94.433594 47.191406 95.917969 C 47.230469 95.9375 47.269531 95.957031 47.308594 95.980469 L 53.375 99.414062 C 54.082031 99.800781 54.96875 99.546875 55.359375 98.839844 C 55.75 98.125 55.46875 97.246094 54.769531 96.851562 C 51.804688 95.191406 48.851562 93.496094 45.890625 91.828125 C 44.917969 91.285156 44.570312 90.054688 45.117188 89.082031 C 45.660156 88.109375 46.890625 87.765625 47.863281 88.308594 L 58.75 94.433594 C 59.429688 94.828125 60.34375 94.527344 60.710938 93.855469 C 61.105469 93.140625 60.824219 92.261719 60.125 91.867188 C 57.355469 90.316406 54.589844 88.765625 51.835938 87.191406 C 50.871094 86.636719 50.535156 85.402344 51.085938 84.4375 C 51.640625 83.46875 52.875 83.132812 53.84375 83.6875 C 56.59375 85.261719 59.375 86.789062 62.125 88.363281 C 62.851562 88.742188 63.675781 88.433594 64.070312 87.746094 C 64.453125 87.03125 64.148438 86.160156 63.464844 85.769531 Z M 25.757812 87.515625 C 25.003906 87.113281 24.042969 87.398438 23.640625 88.15625 C 22.90625 89.53125 22.167969 90.90625 21.433594 92.28125 C 21.03125 93.035156 21.316406 93.996094 22.074219 94.398438 C 22.5625 94.664062 23.191406 94.625 23.664062 94.332031 L 26.480469 89.457031 C 26.753906 88.734375 26.445312 87.882812 25.757812 87.515625 Z M 18.324219 55.214844 C 19.070312 55.070312 19.863281 55.140625 20.605469 55.46875 L 24.804688 57.324219 C 25.320312 57.550781 25.761719 57.882812 26.117188 58.28125 C 26.851562 57.964844 27.605469 57.671875 28.375 57.402344 C 26.453125 53.386719 25.316406 48.980469 25.078125 44.398438 L 15.367188 44.398438 C 15.609375 48.273438 16.648438 51.933594 18.324219 55.214844 Z M 31.4375 91.632812 C 30.933594 91.363281 30.316406 91.394531 29.835938 91.707031 C 28.652344 93.753906 27.445312 95.777344 26.328125 97.859375 C 25.925781 98.613281 26.210938 99.574219 26.964844 99.980469 C 27.703125 100.367188 28.605469 100.125 29.042969 99.414062 L 32.238281 93.230469 C 32.324219 92.59375 32.007812 91.9375 31.4375 91.632812 Z M 48.308594 101.175781 C 48.039062 102.0625 47.453125 103.003906 47.015625 103.828125 C 48.015625 104.402344 48.917969 104.792969 49.628906 103.578125 C 50.253906 102.378906 49.210938 101.6875 48.308594 101.175781 Z M 37.566406 94.910156 C 37.003906 94.609375 36.289062 94.699219 35.808594 95.109375 L 32.851562 100.835938 C 32.859375 101.402344 33.164062 101.917969 33.667969 102.1875 C 34.3125 102.535156 35.136719 102.367188 35.605469 101.808594 L 38.371094 96.492188 C 38.445312 95.859375 38.132812 95.210938 37.566406 94.910156 Z M 43.691406 98.1875 C 43.132812 97.890625 42.421875 97.976562 41.941406 98.382812 L 39.28125 103.492188 C 39.273438 104.074219 39.582031 104.625 40.097656 104.902344 C 40.851562 105.304688 41.8125 105.019531 42.214844 104.261719 L 44.332031 100.308594 C 44.730469 99.558594 44.4375 98.585938 43.691406 98.1875 Z M 10.5625 42.640625 C 10.5625 39.839844 8.292969 37.570312 5.492188 37.570312 C 2.691406 37.570312 0.417969 39.839844 0.417969 42.640625 C 0.417969 45.441406 2.691406 47.714844 5.492188 47.714844 C 8.292969 47.714844 10.5625 45.441406 10.5625 42.640625 Z M 6.539062 33.652344 C 7.464844 33.925781 8.441406 33.394531 8.714844 32.464844 C 12.136719 20.898438 21.285156 11.75 32.851562 8.328125 C 33.78125 8.054688 34.3125 7.078125 34.039062 6.152344 C 33.765625 5.222656 32.792969 4.691406 31.863281 4.964844 C 19.128906 8.734375 9.121094 18.742188 5.351562 31.476562 C 5.078125 32.40625 5.609375 33.378906 6.539062 33.652344 Z M 44.785156 40.886719 L 57.46875 40.886719 C 57.230469 36.597656 56.105469 32.539062 54.273438 28.894531 C 51.242188 29.648438 48.027344 30.085938 44.785156 30.199219 Z M 44.785156 64.371094 C 46.441406 63.679688 47.941406 63.460938 49.328125 63.515625 C 50.476562 62.28125 51.515625 60.957031 52.4375 59.5625 C 49.980469 59.019531 47.398438 58.699219 44.785156 58.601562 Z M 61 63.742188 C 60.839844 63.328125 60.71875 62.980469 60.667969 62.527344 C 59.222656 61.746094 57.648438 61.082031 55.980469 60.53125 C 55.164062 61.863281 54.253906 63.140625 53.253906 64.355469 C 54.679688 64.863281 56.535156 65.828125 57.957031 65.996094 C 59.023438 65.3125 60.039062 64.558594 61 63.742188 Z M 62.117188 68.339844 C 59.34375 69.78125 56.988281 68.839844 54.324219 67.75 C 50.074219 66.011719 48.019531 65.835938 43.957031 68.332031 C 41.464844 70.0625 39.441406 72.5 36.894531 74.414062 C 35.863281 75.1875 34.800781 75.921875 33.707031 76.617188 C 36.566406 78.90625 39.878906 77.566406 43.039062 76.289062 C 46.597656 74.847656 50.011719 73.464844 53.4375 75.414062 L 65.453125 82.265625 C 65.867188 82.5 66.238281 82.78125 66.5625 83.09375 L 69.253906 81.96875 L 63.652344 67.519531 Z M 57.460938 44.398438 L 44.785156 44.398438 L 44.785156 55.085938 C 48.023438 55.199219 51.242188 55.632812 54.273438 56.390625 C 56.113281 52.707031 57.214844 48.640625 57.460938 44.398438 Z M 41.273438 44.398438 L 28.597656 44.398438 C 28.839844 48.640625 29.945312 52.707031 31.785156 56.390625 C 34.816406 55.636719 38.03125 55.199219 41.273438 55.085938 Z M 41.273438 64.558594 L 41.273438 58.601562 C 38.660156 58.699219 36.078125 59.019531 33.621094 59.5625 C 34.648438 61.121094 35.824219 62.585938 37.132812 63.941406 C 38.425781 63.875 39.792969 64.011719 41.273438 64.558594 Z M 33.050781 64.652344 C 31.957031 63.351562 30.960938 61.972656 30.078125 60.53125 C 29.007812 60.882812 27.980469 61.28125 26.996094 61.730469 C 26.859375 62.324219 26.515625 62.980469 26.269531 63.542969 C 27.003906 63.882812 27.941406 64.25 28.628906 64.636719 C 29.886719 65.34375 31.402344 65.035156 33.050781 64.652344 Z M 41.273438 17.761719 C 38.269531 19.929688 35.675781 22.632812 33.625 25.722656 C 36.082031 26.265625 38.664062 26.585938 41.273438 26.683594 Z M 41.273438 30.199219 C 38.03125 30.085938 34.816406 29.648438 31.785156 28.894531 C 29.953125 32.539062 28.828125 36.597656 28.589844 40.886719 L 41.273438 40.886719 Z M 64.175781 24.726562 C 64.105469 24.792969 64.023438 24.851562 63.941406 24.90625 C 62.0625 26.097656 59.949219 27.089844 57.683594 27.878906 C 59.59375 31.855469 60.757812 36.25 60.984375 40.886719 L 70.691406 40.886719 C 70.304688 34.742188 67.917969 29.140625 64.175781 24.726562 Z M 38.765625 15.253906 C 33.257812 16.101562 28.289062 18.574219 24.355469 22.160156 C 26.070312 23.207031 28.003906 24.070312 30.082031 24.753906 C 32.351562 21.066406 35.308594 17.839844 38.765625 15.253906 Z M 22.300781 59.785156 L 12.125 82.808594 C 12.078125 82.910156 11.964844 82.949219 11.867188 82.902344 L 7.433594 80.945312 C 7.332031 80.902344 7.292969 80.785156 7.339844 80.6875 L 13.089844 67.675781 C 12.78125 67.570312 12.5 67.378906 12.285156 67.105469 C 9.152344 63.175781 6.777344 58.628906 5.351562 53.808594 C 5.078125 52.878906 5.609375 51.90625 6.539062 51.632812 C 7.46875 51.359375 8.441406 51.890625 8.714844 52.820312 C 9.949219 56.992188 11.925781 60.871094 14.566406 64.332031 L 17.515625 57.664062 C 17.558594 57.5625 17.671875 57.523438 17.773438 57.566406 L 22.207031 59.527344 C 22.304688 59.570312 22.34375 59.683594 22.300781 59.785156 Z M 20.457031 60.949219 C 20.496094 60.121094 19.855469 59.414062 19.023438 59.375 C 18.191406 59.339844 17.488281 59.980469 17.449219 60.8125 C 17.410156 61.640625 18.054688 62.347656 18.882812 62.386719 C 19.714844 62.421875 20.417969 61.78125 20.457031 60.949219 Z M 44.785156 26.683594 C 47.394531 26.585938 49.976562 26.265625 52.433594 25.722656 C 50.382812 22.632812 47.785156 19.929688 44.785156 17.761719 Z M 63.105469 58.523438 L 66.648438 57.148438 C 68.957031 53.394531 70.398438 49.054688 70.691406 44.398438 L 60.980469 44.398438 C 60.742188 48.980469 59.601562 53.386719 57.683594 57.402344 C 59.175781 57.925781 60.605469 58.535156 61.941406 59.230469 C 62.273438 58.933594 62.664062 58.691406 63.105469 58.523438 Z M 80.707031 53.808594 C 79.355469 58.367188 77.191406 62.621094 74.3125 66.40625 C 74.078125 66.71875 73.753906 66.929688 73.40625 67.03125 L 79.472656 82.679688 C 79.507812 82.773438 79.457031 82.902344 79.363281 82.941406 L 74.84375 84.691406 C 74.753906 84.726562 74.621094 84.671875 74.585938 84.582031 C 71.554688 76.757812 68.519531 68.933594 65.488281 61.109375 C 65.453125 61.019531 65.507812 60.886719 65.597656 60.851562 L 70.117188 59.097656 C 70.207031 59.066406 70.339844 59.121094 70.375 59.210938 L 72.0625 63.566406 C 74.410156 60.316406 76.207031 56.664062 77.34375 52.820312 C 77.617188 51.890625 78.589844 51.359375 79.519531 51.632812 C 80.449219 51.90625 80.980469 52.878906 80.707031 53.808594 Z M 70.289062 62.359375 C 70.289062 61.527344 69.617188 60.851562 68.785156 60.851562 C 67.953125 60.851562 67.277344 61.527344 67.277344 62.359375 C 67.277344 63.191406 67.953125 63.863281 68.785156 63.863281 C 69.617188 63.863281 70.289062 63.191406 70.289062 62.359375 Z M 70.289062 62.359375 " fill-opacity="1" fill-rule="nonzero"/></g><g fill="#0059b3" fill-opacity="1"><g transform="translate(100.591789, 30.062817)"><g><path d="M 7.75 -7.328125 L 15.21875 -7.328125 C 15.207031 -6.222656 15.023438 -5.207031 14.671875 -4.28125 C 14.328125 -3.351562 13.835938 -2.546875 13.203125 -1.859375 C 12.578125 -1.179688 11.828125 -0.648438 10.953125 -0.265625 C 10.078125 0.109375 9.109375 0.296875 8.046875 0.296875 C 7.023438 0.296875 6.070312 0.117188 5.1875 -0.234375 C 4.300781 -0.597656 3.53125 -1.109375 2.875 -1.765625 C 2.21875 -2.421875 1.707031 -3.191406 1.34375 -4.078125 C 0.976562 -4.972656 0.796875 -5.941406 0.796875 -6.984375 C 0.796875 -8.046875 0.972656 -9.019531 1.328125 -9.90625 C 1.679688 -10.789062 2.179688 -11.5625 2.828125 -12.21875 C 3.484375 -12.882812 4.25 -13.398438 5.125 -13.765625 C 6.007812 -14.140625 6.96875 -14.328125 8 -14.328125 C 9.15625 -14.328125 10.226562 -14.097656 11.21875 -13.640625 C 12.207031 -13.179688 13.035156 -12.550781 13.703125 -11.75 C 14.367188 -10.957031 14.804688 -10.03125 15.015625 -8.96875 L 11.90625 -8.96875 C 11.601562 -9.726562 11.101562 -10.328125 10.40625 -10.765625 C 9.71875 -11.210938 8.929688 -11.4375 8.046875 -11.4375 C 7.222656 -11.4375 6.492188 -11.242188 5.859375 -10.859375 C 5.234375 -10.484375 4.742188 -9.960938 4.390625 -9.296875 C 4.035156 -8.640625 3.859375 -7.867188 3.859375 -6.984375 C 3.859375 -6.117188 4.03125 -5.351562 4.375 -4.6875 C 4.726562 -4.03125 5.21875 -3.515625 5.84375 -3.140625 C 6.476562 -2.765625 7.210938 -2.578125 8.046875 -2.578125 C 8.960938 -2.578125 9.78125 -2.796875 10.5 -3.234375 C 11.21875 -3.679688 11.703125 -4.265625 11.953125 -4.984375 L 7.75 -4.984375 Z M 7.75 -7.328125 "/></g></g></g><g fill="#0059b3" fill-opacity="1"><g transform="translate(116.552721, 30.062817)"><g><path d="M 4.640625 -2.828125 L 10.015625 -2.828125 L 10.015625 0 L 1.609375 0 L 1.609375 -14.015625 L 4.640625 -14.015625 Z M 4.640625 -2.828125 "/></g></g></g><g fill="#0059b3" fill-opacity="1"><g transform="translate(127.006428, 30.062817)"><g><path d="M 8.25 0.296875 C 7.1875 0.296875 6.195312 0.113281 5.28125 -0.25 C 4.375 -0.613281 3.582031 -1.125 2.90625 -1.78125 C 2.238281 -2.445312 1.71875 -3.222656 1.34375 -4.109375 C 0.96875 -5.003906 0.78125 -5.972656 0.78125 -7.015625 C 0.78125 -8.054688 0.96875 -9.019531 1.34375 -9.90625 C 1.71875 -10.789062 2.238281 -11.5625 2.90625 -12.21875 C 3.582031 -12.882812 4.375 -13.398438 5.28125 -13.765625 C 6.195312 -14.140625 7.1875 -14.328125 8.25 -14.328125 C 9.320312 -14.328125 10.3125 -14.140625 11.21875 -13.765625 C 12.125 -13.398438 12.910156 -12.882812 13.578125 -12.21875 C 14.242188 -11.5625 14.765625 -10.789062 15.140625 -9.90625 C 15.515625 -9.019531 15.703125 -8.054688 15.703125 -7.015625 C 15.703125 -5.972656 15.515625 -5.003906 15.140625 -4.109375 C 14.765625 -3.222656 14.242188 -2.445312 13.578125 -1.78125 C 12.910156 -1.125 12.125 -0.613281 11.21875 -0.25 C 10.3125 0.113281 9.320312 0.296875 8.25 0.296875 Z M 8.25 -2.5625 C 9.09375 -2.5625 9.84375 -2.753906 10.5 -3.140625 C 11.164062 -3.523438 11.6875 -4.050781 12.0625 -4.71875 C 12.445312 -5.394531 12.640625 -6.160156 12.640625 -7.015625 C 12.640625 -7.847656 12.445312 -8.601562 12.0625 -9.28125 C 11.6875 -9.957031 11.164062 -10.488281 10.5 -10.875 C 9.84375 -11.257812 9.09375 -11.453125 8.25 -11.453125 C 7.425781 -11.453125 6.675781 -11.257812 6 -10.875 C 5.332031 -10.488281 4.804688 -9.957031 4.421875 -9.28125 C 4.035156 -8.601562 3.84375 -7.847656 3.84375 -7.015625 C 3.84375 -6.171875 4.035156 -5.410156 4.421875 -4.734375 C 4.804688 -4.054688 5.332031 -3.523438 6 -3.140625 C 6.675781 -2.753906 7.425781 -2.5625 8.25 -2.5625 Z M 8.25 -2.5625 "/></g></g></g><g fill="#0059b3" fill-opacity="1"><g transform="translate(143.488034, 30.062817)"><g><path d="M 10.03125 -7.390625 C 10.644531 -7.066406 11.125 -6.613281 11.46875 -6.03125 C 11.8125 -5.457031 11.984375 -4.796875 11.984375 -4.046875 C 11.984375 -3.296875 11.785156 -2.613281 11.390625 -2 C 10.992188 -1.382812 10.457031 -0.894531 9.78125 -0.53125 C 9.113281 -0.175781 8.378906 0 7.578125 0 L 1.609375 0 L 1.609375 -14.015625 L 7.40625 -14.015625 C 8.207031 -14.015625 8.925781 -13.859375 9.5625 -13.546875 C 10.195312 -13.234375 10.695312 -12.800781 11.0625 -12.25 C 11.4375 -11.707031 11.625 -11.097656 11.625 -10.421875 C 11.625 -9.816406 11.484375 -9.242188 11.203125 -8.703125 C 10.921875 -8.171875 10.53125 -7.734375 10.03125 -7.390625 Z M 8.671875 -9.9375 C 8.671875 -10.375 8.53125 -10.734375 8.25 -11.015625 C 7.96875 -11.296875 7.585938 -11.4375 7.109375 -11.4375 L 4.59375 -11.4375 L 4.59375 -8.453125 L 7.109375 -8.453125 C 7.585938 -8.453125 7.96875 -8.59375 8.25 -8.875 C 8.53125 -9.15625 8.671875 -9.507812 8.671875 -9.9375 Z M 7.265625 -2.78125 C 7.773438 -2.78125 8.179688 -2.925781 8.484375 -3.21875 C 8.785156 -3.519531 8.9375 -3.898438 8.9375 -4.359375 C 8.9375 -4.816406 8.785156 -5.191406 8.484375 -5.484375 C 8.179688 -5.773438 7.773438 -5.921875 7.265625 -5.921875 L 4.59375 -5.921875 L 4.59375 -2.78125 Z M 7.265625 -2.78125 "/></g></g></g><g fill="#0059b3" fill-opacity="1"><g transform="translate(156.34489, 30.062817)"><g><path d="M 10.921875 0 L 9.9375 -2.671875 L 4.34375 -2.671875 L 3.390625 0 L 0.1875 0 L 5.671875 -14.015625 L 8.53125 -14.015625 L 14.203125 0 Z M 7.125 -10.3125 L 5.3125 -5.3125 L 8.96875 -5.3125 Z M 7.125 -10.3125 "/></g></g></g><g fill="#0059b3" fill-opacity="1"><g transform="translate(170.723744, 30.062817)"><g><path d="M 4.640625 -2.828125 L 10.015625 -2.828125 L 10.015625 0 L 1.609375 0 L 1.609375 -14.015625 L 4.640625 -14.015625 Z M 4.640625 -2.828125 "/></g></g></g><g fill="#0059b3" fill-opacity="1"><g transform="translate(100.591789, 57.946491)"><g><path d="M 9.921875 -14.015625 L 12.9375 -14.015625 L 12.9375 0 L 9.921875 0 L 9.921875 -5.78125 L 4.640625 -5.78125 L 4.640625 0 L 1.609375 0 L 1.609375 -14.015625 L 4.640625 -14.015625 L 4.640625 -8.609375 L 9.921875 -8.609375 Z M 9.921875 -14.015625 "/></g></g></g><g fill="#0059b3" fill-opacity="1"><g transform="translate(115.150881, 57.946491)"><g><path d="M 4.640625 -2.828125 L 10.234375 -2.828125 L 10.234375 0 L 1.609375 0 L 1.609375 -14.015625 L 10.015625 -14.015625 L 10.015625 -11.21875 L 4.640625 -11.21875 L 4.640625 -8.453125 L 9.5 -8.453125 L 9.5 -5.703125 L 4.640625 -5.703125 Z M 4.640625 -2.828125 "/></g></g></g><g fill="#0059b3" fill-opacity="1"><g transform="translate(126.345554, 57.946491)"><g><path d="M 10.921875 0 L 9.9375 -2.671875 L 4.34375 -2.671875 L 3.390625 0 L 0.1875 0 L 5.671875 -14.015625 L 8.53125 -14.015625 L 14.203125 0 Z M 7.125 -10.3125 L 5.3125 -5.3125 L 8.96875 -5.3125 Z M 7.125 -10.3125 "/></g></g></g><g fill="#0059b3" fill-opacity="1"><g transform="translate(140.724408, 57.946491)"><g><path d="M 4.640625 -2.828125 L 10.015625 -2.828125 L 10.015625 0 L 1.609375 0 L 1.609375 -14.015625 L 4.640625 -14.015625 Z M 4.640625 -2.828125 "/></g></g></g><g fill="#0059b3" fill-opacity="1"><g transform="translate(151.178115, 57.946491)"><g><path d="M 11.28125 -14.015625 L 11.28125 -11.203125 L 7.375 -11.203125 L 7.375 0 L 4.328125 0 L 4.328125 -11.203125 L 0.4375 -11.203125 L 0.4375 -14.015625 Z M 11.28125 -14.015625 "/></g></g></g><g fill="#0059b3" fill-opacity="1"><g transform="translate(162.87345, 57.946491)"><g><path d="M 9.921875 -14.015625 L 12.9375 -14.015625 L 12.9375 0 L 9.921875 0 L 9.921875 -5.78125 L 4.640625 -5.78125 L 4.640625 0 L 1.609375 0 L 1.609375 -14.015625 L 4.640625 -14.015625 L 4.640625 -8.609375 L 9.921875 -8.609375 Z M 9.921875 -14.015625 "/></g></g></g><g fill="#0059b3" fill-opacity="1"><g transform="translate(100.591789, 85.830164)"><g><path d="M 8.25 0.296875 C 7.1875 0.296875 6.195312 0.113281 5.28125 -0.25 C 4.375 -0.613281 3.582031 -1.125 2.90625 -1.78125 C 2.238281 -2.445312 1.71875 -3.222656 1.34375 -4.109375 C 0.96875 -5.003906 0.78125 -5.972656 0.78125 -7.015625 C 0.78125 -8.054688 0.96875 -9.019531 1.34375 -9.90625 C 1.71875 -10.789062 2.238281 -11.5625 2.90625 -12.21875 C 3.582031 -12.882812 4.375 -13.398438 5.28125 -13.765625 C 6.195312 -14.140625 7.1875 -14.328125 8.25 -14.328125 C 9.320312 -14.328125 10.3125 -14.140625 11.21875 -13.765625 C 12.125 -13.398438 12.910156 -12.882812 13.578125 -12.21875 C 14.242188 -11.5625 14.765625 -10.789062 15.140625 -9.90625 C 15.515625 -9.019531 15.703125 -8.054688 15.703125 -7.015625 C 15.703125 -5.972656 15.515625 -5.003906 15.140625 -4.109375 C 14.765625 -3.222656 14.242188 -2.445312 13.578125 -1.78125 C 12.910156 -1.125 12.125 -0.613281 11.21875 -0.25 C 10.3125 0.113281 9.320312 0.296875 8.25 0.296875 Z M 8.25 -2.5625 C 9.09375 -2.5625 9.84375 -2.753906 10.5 -3.140625 C 11.164062 -3.523438 11.6875 -4.050781 12.0625 -4.71875 C 12.445312 -5.394531 12.640625 -6.160156 12.640625 -7.015625 C 12.640625 -7.847656 12.445312 -8.601562 12.0625 -9.28125 C 11.6875 -9.957031 11.164062 -10.488281 10.5 -10.875 C 9.84375 -11.257812 9.09375 -11.453125 8.25 -11.453125 C 7.425781 -11.453125 6.675781 -11.257812 6 -10.875 C 5.332031 -10.488281 4.804688 -9.957031 4.421875 -9.28125 C 4.035156 -8.601562 3.84375 -7.847656 3.84375 -7.015625 C 3.84375 -6.171875 4.035156 -5.410156 4.421875 -4.734375 C 4.804688 -4.054688 5.332031 -3.523438 6 -3.140625 C 6.675781 -2.753906 7.425781 -2.5625 8.25 -2.5625 Z M 8.25 -2.5625 "/></g></g></g><g fill="#0059b3" fill-opacity="1"><g transform="translate(117.073394, 85.830164)"><g><path d="M 9.3125 0 L 6.59375 -4.78125 L 4.640625 -4.78125 L 4.640625 0 L 1.609375 0 L 1.609375 -14.015625 L 7.265625 -14.015625 C 8.203125 -14.015625 9.035156 -13.8125 9.765625 -13.40625 C 10.503906 -13.007812 11.085938 -12.460938 11.515625 -11.765625 C 11.941406 -11.078125 12.15625 -10.28125 12.15625 -9.375 C 12.15625 -8.46875 11.925781 -7.65625 11.46875 -6.9375 C 11.007812 -6.226562 10.390625 -5.6875 9.609375 -5.3125 L 12.71875 0 Z M 4.640625 -11.21875 L 4.640625 -7.59375 L 7.078125 -7.59375 C 7.703125 -7.59375 8.191406 -7.757812 8.546875 -8.09375 C 8.910156 -8.4375 9.09375 -8.867188 9.09375 -9.390625 C 9.09375 -9.929688 8.910156 -10.367188 8.546875 -10.703125 C 8.191406 -11.046875 7.703125 -11.21875 7.078125 -11.21875 Z M 4.640625 -11.21875 "/></g></g></g><g fill="#0059b3" fill-opacity="1"><g transform="translate(130.310754, 85.830164)"><g><path d="M 7.75 -7.328125 L 15.21875 -7.328125 C 15.207031 -6.222656 15.023438 -5.207031 14.671875 -4.28125 C 14.328125 -3.351562 13.835938 -2.546875 13.203125 -1.859375 C 12.578125 -1.179688 11.828125 -0.648438 10.953125 -0.265625 C 10.078125 0.109375 9.109375 0.296875 8.046875 0.296875 C 7.023438 0.296875 6.070312 0.117188 5.1875 -0.234375 C 4.300781 -0.597656 3.53125 -1.109375 2.875 -1.765625 C 2.21875 -2.421875 1.707031 -3.191406 1.34375 -4.078125 C 0.976562 -4.972656 0.796875 -5.941406 0.796875 -6.984375 C 0.796875 -8.046875 0.972656 -9.019531 1.328125 -9.90625 C 1.679688 -10.789062 2.179688 -11.5625 2.828125 -12.21875 C 3.484375 -12.882812 4.25 -13.398438 5.125 -13.765625 C 6.007812 -14.140625 6.96875 -14.328125 8 -14.328125 C 9.15625 -14.328125 10.226562 -14.097656 11.21875 -13.640625 C 12.207031 -13.179688 13.035156 -12.550781 13.703125 -11.75 C 14.367188 -10.957031 14.804688 -10.03125 15.015625 -8.96875 L 11.90625 -8.96875 C 11.601562 -9.726562 11.101562 -10.328125 10.40625 -10.765625 C 9.71875 -11.210938 8.929688 -11.4375 8.046875 -11.4375 C 7.222656 -11.4375 6.492188 -11.242188 5.859375 -10.859375 C 5.234375 -10.484375 4.742188 -9.960938 4.390625 -9.296875 C 4.035156 -8.640625 3.859375 -7.867188 3.859375 -6.984375 C 3.859375 -6.117188 4.03125 -5.351562 4.375 -4.6875 C 4.726562 -4.03125 5.21875 -3.515625 5.84375 -3.140625 C 6.476562 -2.765625 7.210938 -2.578125 8.046875 -2.578125 C 8.960938 -2.578125 9.78125 -2.796875 10.5 -3.234375 C 11.21875 -3.679688 11.703125 -4.265625 11.953125 -4.984375 L 7.75 -4.984375 Z M 7.75 -7.328125 "/></g></g></g><g fill="#0059b3" fill-opacity="1"><g transform="translate(146.271685, 85.830164)"><g><path d="M 10.921875 0 L 9.9375 -2.671875 L 4.34375 -2.671875 L 3.390625 0 L 0.1875 0 L 5.671875 -14.015625 L 8.53125 -14.015625 L 14.203125 0 Z M 7.125 -10.3125 L 5.3125 -5.3125 L 8.96875 -5.3125 Z M 7.125 -10.3125 "/></g></g></g><g fill="#0059b3" fill-opacity="1"><g transform="translate(160.65054, 85.830164)"><g><path d="M 10.5 -14.015625 L 13.46875 -14.015625 L 13.46875 0 L 10.9375 0 L 4.59375 -8.75 L 4.59375 0 L 1.609375 0 L 1.609375 -14.015625 L 4.34375 -14.015625 L 10.5 -5.46875 Z M 10.5 -14.015625 "/></g></g></g><g fill="#0059b3" fill-opacity="1"><g transform="translate(175.71028, 85.830164)"><g><path d="M 1.609375 0 L 1.609375 -14.015625 L 4.640625 -14.015625 L 4.640625 0 Z M 1.609375 0 "/></g></g></g><g fill="#0059b3" fill-opacity="1"><g transform="translate(181.958469, 85.830164)"><g><path d="M 6.25 0.28125 C 5.175781 0.28125 4.234375 0.0859375 3.421875 -0.296875 C 2.609375 -0.679688 1.972656 -1.234375 1.515625 -1.953125 C 1.054688 -2.679688 0.828125 -3.546875 0.828125 -4.546875 L 3.890625 -4.546875 C 3.890625 -3.867188 4.125 -3.363281 4.59375 -3.03125 C 5.070312 -2.707031 5.617188 -2.546875 6.234375 -2.546875 C 6.617188 -2.546875 6.976562 -2.609375 7.3125 -2.734375 C 7.65625 -2.859375 7.9375 -3.046875 8.15625 -3.296875 C 8.382812 -3.546875 8.5 -3.84375 8.5 -4.1875 C 8.5 -4.550781 8.367188 -4.832031 8.109375 -5.03125 C 7.859375 -5.238281 7.519531 -5.410156 7.09375 -5.546875 C 6.664062 -5.679688 6.195312 -5.804688 5.6875 -5.921875 C 5.164062 -6.046875 4.628906 -6.191406 4.078125 -6.359375 C 3.535156 -6.535156 3.03125 -6.765625 2.5625 -7.046875 C 2.09375 -7.335938 1.71875 -7.726562 1.4375 -8.21875 C 1.15625 -8.707031 1.015625 -9.328125 1.015625 -10.078125 C 1.015625 -11.421875 1.472656 -12.457031 2.390625 -13.1875 C 3.304688 -13.914062 4.546875 -14.28125 6.109375 -14.28125 C 7.710938 -14.28125 8.953125 -13.875 9.828125 -13.0625 C 10.710938 -12.257812 11.15625 -11.164062 11.15625 -9.78125 L 8.15625 -9.78125 C 8.15625 -10.375 7.941406 -10.8125 7.515625 -11.09375 C 7.085938 -11.382812 6.59375 -11.53125 6.03125 -11.53125 C 5.53125 -11.53125 5.070312 -11.421875 4.65625 -11.203125 C 4.25 -10.992188 4.046875 -10.664062 4.046875 -10.21875 C 4.046875 -9.882812 4.164062 -9.617188 4.40625 -9.421875 C 4.65625 -9.234375 4.984375 -9.070312 5.390625 -8.9375 C 5.804688 -8.8125 6.257812 -8.691406 6.75 -8.578125 C 7.28125 -8.441406 7.828125 -8.28125 8.390625 -8.09375 C 8.953125 -7.914062 9.472656 -7.671875 9.953125 -7.359375 C 10.429688 -7.054688 10.820312 -6.648438 11.125 -6.140625 C 11.425781 -5.640625 11.578125 -5.003906 11.578125 -4.234375 C 11.578125 -3.210938 11.332031 -2.367188 10.84375 -1.703125 C 10.351562 -1.035156 9.707031 -0.535156 8.90625 -0.203125 C 8.113281 0.117188 7.226562 0.28125 6.25 0.28125 Z M 6.25 0.28125 "/></g></g></g><g fill="#0059b3" fill-opacity="1"><g transform="translate(194.354716, 85.830164)"><g><path d="M 10.921875 0 L 9.9375 -2.671875 L 4.34375 -2.671875 L 3.390625 0 L 0.1875 0 L 5.671875 -14.015625 L 8.53125 -14.015625 L 14.203125 0 Z M 7.125 -10.3125 L 5.3125 -5.3125 L 8.96875 -5.3125 Z M 7.125 -10.3125 "/></g></g></g><g fill="#0059b3" fill-opacity="1"><g transform="translate(208.73357, 85.830164)"><g><path d="M 11.28125 -14.015625 L 11.28125 -11.203125 L 7.375 -11.203125 L 7.375 0 L 4.328125 0 L 4.328125 -11.203125 L 0.4375 -11.203125 L 0.4375 -14.015625 Z M 11.28125 -14.015625 "/></g></g></g><g fill="#0059b3" fill-opacity="1"><g transform="translate(220.428905, 85.830164)"><g><path d="M 1.609375 0 L 1.609375 -14.015625 L 4.640625 -14.015625 L 4.640625 0 Z M 1.609375 0 "/></g></g></g><g fill="#0059b3" fill-opacity="1"><g transform="translate(226.677095, 85.830164)"><g><path d="M 8.25 0.296875 C 7.1875 0.296875 6.195312 0.113281 5.28125 -0.25 C 4.375 -0.613281 3.582031 -1.125 2.90625 -1.78125 C 2.238281 -2.445312 1.71875 -3.222656 1.34375 -4.109375 C 0.96875 -5.003906 0.78125 -5.972656 0.78125 -7.015625 C 0.78125 -8.054688 0.96875 -9.019531 1.34375 -9.90625 C 1.71875 -10.789062 2.238281 -11.5625 2.90625 -12.21875 C 3.582031 -12.882812 4.375 -13.398438 5.28125 -13.765625 C 6.195312 -14.140625 7.1875 -14.328125 8.25 -14.328125 C 9.320312 -14.328125 10.3125 -14.140625 11.21875 -13.765625 C 12.125 -13.398438 12.910156 -12.882812 13.578125 -12.21875 C 14.242188 -11.5625 14.765625 -10.789062 15.140625 -9.90625 C 15.515625 -9.019531 15.703125 -8.054688 15.703125 -7.015625 C 15.703125 -5.972656 15.515625 -5.003906 15.140625 -4.109375 C 14.765625 -3.222656 14.242188 -2.445312 13.578125 -1.78125 C 12.910156 -1.125 12.125 -0.613281 11.21875 -0.25 C 10.3125 0.113281 9.320312 0.296875 8.25 0.296875 Z M 8.25 -2.5625 C 9.09375 -2.5625 9.84375 -2.753906 10.5 -3.140625 C 11.164062 -3.523438 11.6875 -4.050781 12.0625 -4.71875 C 12.445312 -5.394531 12.640625 -6.160156 12.640625 -7.015625 C 12.640625 -7.847656 12.445312 -8.601562 12.0625 -9.28125 C 11.6875 -9.957031 11.164062 -10.488281 10.5 -10.875 C 9.84375 -11.257812 9.09375 -11.453125 8.25 -11.453125 C 7.425781 -11.453125 6.675781 -11.257812 6 -10.875 C 5.332031 -10.488281 4.804688 -9.957031 4.421875 -9.28125 C 4.035156 -8.601562 3.84375 -7.847656 3.84375 -7.015625 C 3.84375 -6.171875 4.035156 -5.410156 4.421875 -4.734375 C 4.804688 -4.054688 5.332031 -3.523438 6 -3.140625 C 6.675781 -2.753906 7.425781 -2.5625 8.25 -2.5625 Z M 8.25 -2.5625 "/></g></g></g><g fill="#0059b3" fill-opacity="1"><g transform="translate(243.1587, 85.830164)"><g><path d="M 10.5 -14.015625 L 13.46875 -14.015625 L 13.46875 0 L 10.9375 0 L 4.59375 -8.75 L 4.59375 0 L 1.609375 0 L 1.609375 -14.015625 L 4.34375 -14.015625 L 10.5 -5.46875 Z M 10.5 -14.015625 "/></g></g></g></svg>